<?xml version="1.0" encoding="iso-8859-1"?>
<!-- Uploaded to: SVG Repo, www.svgrepo.com, Generator: SVG Repo Mixer Tools -->
<svg version="1.1" id="Layer_1" xmlns="http://www.w3.org/2000/svg" xmlns:xlink="http://www.w3.org/1999/xlink" 
	 viewBox="0 0 454.4 454.4" xml:space="preserve">
<path style="fill:#04CE78;" d="M236.8,138.8c-9.6,9.6-9.6,24.8,0,33.6c4.8,4.8,11.2,7.2,16.8,7.2c6.4,0,12-2.4,16.8-7.2
	s7.2-11.2,7.2-16.8c0-6.4-2.4-12-7.2-16.8C261.6,129.2,246.4,129.2,236.8,138.8z M265.6,257.2c4.8-4.8,7.2-10.4,7.2-16.8
	s-2.4-12.8-7.2-16.8c-9.6-9.6-24.8-9.6-33.6,0c-4.8,4.8-7.2,10.4-7.2,16.8s2.4,12.8,7.2,16.8c4.8,4.8,10.4,7.2,16.8,7.2
	S260.8,262,265.6,257.2z M310.4,211.6c6.4-6.4,6.4-16.8,0-22.4c-6.4-6.4-16.8-6.4-22.4,0c-6.4,6.4-6.4,16,0,22.4
	c3.2,3.2,7.2,4.8,11.2,4.8C304,216.4,308,214.8,310.4,211.6z M158.4,206L260,104.4l22.4,22.4l22.4,22.4l45.6,45.6L248.8,296.4
	l-33.6-33.6l0,0L192,240.4l0,0L158.4,206z"/>
<polygon style="fill:#04CE78;" points="328,126.8 344.8,144.4 333.6,155.6 316.8,138.8 299.2,121.2 310.4,110 "/>
<g>
	<path style="fill:#000D44;" d="M288,189.2c6.4-6.4,16.8-6.4,22.4,0c6.4,6.4,6.4,16,0,22.4c-3.2,3.2-7.2,4.8-11.2,4.8
		s-8-1.6-11.2-4.8C281.6,206,281.6,195.6,288,189.2z"/>
	<path style="fill:#000D44;" d="M248.8,161.2c3.2,3.2,8,3.2,11.2,0s3.2-8,0-11.2c-1.6-1.6-4-2.4-5.6-2.4c-2.4,0-4,0.8-5.6,2.4
		C245.6,152.4,245.6,158,248.8,161.2z M278.4,155.6c0,6.4-2.4,12-7.2,16.8s-11.2,7.2-16.8,7.2c-6.4,0-12-2.4-16.8-7.2
		c-9.6-9.6-9.6-24.8,0-33.6c9.6-9.6,24.8-9.6,34.4,0C276,142.8,278.4,149.2,278.4,155.6z"/>
	<path style="fill:#000D44;" d="M240.8,240.4c0,2.4,0.8,4,2.4,5.6c3.2,3.2,8,3.2,11.2,0c1.6-1.6,2.4-3.2,2.4-5.6s-0.8-4-2.4-5.6
		c-1.6-1.6-4-2.4-5.6-2.4c-2.4,0-4,0.8-5.6,2.4C241.6,236.4,240.8,238,240.8,240.4z M232,223.6c9.6-9.6,24.8-9.6,33.6,0
		c4.8,4.8,7.2,10.4,7.2,16.8s-2.4,12.8-7.2,16.8c-4.8,4.8-10.4,7.2-16.8,7.2s-12-2.4-16.8-7.2c-4.8-4.8-7.2-10.4-7.2-16.8
		C224.8,234,227.2,227.6,232,223.6z"/>
</g>
<rect x="168.546" y="296.202" transform="matrix(-0.7071 0.7071 -0.7071 -0.7071 565.9418 397.9835)" style="fill:#FFF8EF;" width="63.999" height="40"/>
<rect x="137.287" y="277.082" transform="matrix(-0.7071 0.7071 -0.7071 -0.7071 490.5741 366.9619)" style="fill:#04CE78;" width="63.999" height="16"/>
<rect x="106.084" y="233.978" transform="matrix(-0.7071 0.7071 -0.7071 -0.7071 415.3134 335.9279)" style="fill:#FFF8EF;" width="63.999" height="40"/>
<path style="fill:#04CE78;" d="M84.8,268.4L186.4,370l16.8,16.8L192,398l-56.8-56.8l-22.4-22.4l0,0L56,262l11.2-11.2L84.8,268.4z"/>
<path style="fill:#000D44;" d="M79.2,376.4c12.8,12,12.8,32.8,0,44.8c-6.4,6.4-14.4,9.6-22.4,9.6s-16-3.2-22.4-9.6
	c-12.8-12.8-12.8-32.8,0-44.8C46.4,363.6,66.4,363.6,79.2,376.4z M44.8,387.6c-6.4,6.4-6.4,16,0,22.4s16,6.4,22.4,0s6.4-16,0-22.4
	c-3.2-3.2-7.2-4.8-11.2-4.8C52,382.8,48,384.4,44.8,387.6z"/>
<path style="fill:#04CE78;" d="M56,430.8c8,0,16-3.2,22.4-9.6c12.8-12.8,12.8-32.8,0-44.8c-12.8-12.8-32.8-12.8-45.6,0
	c-12.8,12-12.8,32.8,0,44.8C40,427.6,48,430.8,56,430.8z M93.6,372.4c-2.4,2.4-3.2,6.4-1.6,8.8c7.2,15.2,4,33.6-8,45.6
	c-15.2,15.2-40.8,15.2-56.8,0c-7.2-7.2-12-17.6-12-28s4-20.8,12-28c8-8,17.6-12,28-12c5.6,0,12,1.6,17.6,4c3.2,1.6,6.4,0.8,8.8-1.6
	l24.8-24.8l11.2,11.2L93.6,372.4z"/>
<path style="fill:#000D44;" d="M146.4,217.2L100.8,262l28,28l44.8-45.6L146.4,217.2z M28,426.8c16,15.2,40.8,15.2,56.8,0
	c12-12,15.2-30.4,8-45.6c-1.6-3.2-0.8-6.4,1.6-8.8l24.8-24.8l-12-11.2l-24.8,24.8c-2.4,2.4-6.4,3.2-8.8,1.6c-5.6-2.4-11.2-4-17.6-4
	c-10.4,0-20.8,4-28,12c-7.2,7.2-12,17.6-12,28S20.8,419.6,28,426.8z M208.8,279.6L164,325.2l28,28l44.8-44.8L208.8,279.6z
	 M260,104.4L158.4,206l33.6,33.6l0,0l22.4,22.4l0,0l33.6,33.6L349.6,194L304,148.4l-21.6-21.6L260,104.4z M186.4,370L84.8,268.4
	L68,251.6l-11.2,11.2l56.8,56.8l0,0L136,342l56.8,56.8l11.2-11.2L186.4,370z M197.6,268.4l-11.2-11.2l-44.8,45.6l11.2,11.2
	L197.6,268.4z M328,126.8L311.2,110L300,121.2l16.8,16.8l16.8,16.8l11.2-11.2L328,126.8z M108.8,379.6c7.2,20,2.4,43.2-12.8,58.4
	c-11.2,11.2-25.6,16-40,16s-28.8-5.6-39.2-16S0,413.2,0,398s5.6-28.8,16.8-40c15.2-15.2,38.4-20,58.4-12.8L96,324.4l-56.8-56.8
	c-3.2-3.2-3.2-8,0-11.2L61.6,234c3.2-3.2,8-3.2,11.2,0l16.8,16.8l164-164c1.6-1.6,3.2-2.4,5.6-2.4c2.4,0,4,0.8,5.6,2.4l22.4,22.4
	L304,92.4c3.2-3.2,8-3.2,11.2,0l16.8,16.8L440.8,2.8c3.2-3.2,8-3.2,11.2,0s3.2,8,0,11.2L344.8,121.2l16.8,16.8c3.2,3.2,3.2,8,0,11.2
	L344.8,166l22.4,22.4c3.2,3.2,3.2,8,0,11.2l-164,164.8l16.8,16.8c3.2,3.2,3.2,8,0,11.2l-22.4,22.4c-1.6,1.6-3.2,2.4-5.6,2.4
	c-2.4,0-4-0.8-5.6-2.4L129.6,358L108.8,379.6z"/>
<path style="fill:#04CE78;" d="M328.8,184.4L260,115.6l-79.2,79.2c-6.4,6.4-6.4,16,0,22.4l15.2,15.2l0,0l23.2,23.2l1.6,0.8l0.8,1.6
	l27.2,27.2l80-80C334.4,199.6,334.4,190,328.8,184.4z M288,189.2c6.4-6.4,16.8-6.4,22.4,0c6.4,6.4,6.4,16,0,22.4
	c-3.2,3.2-7.2,4.8-11.2,4.8s-8-1.6-11.2-4.8C281.6,206,281.6,195.6,288,189.2z M236.8,138.8c9.6-9.6,24.8-9.6,34.4,0
	c4.8,4.8,7.2,10.4,7.2,16.8s-2.4,12-7.2,16.8s-11.2,7.2-16.8,7.2c-6.4,0-12-2.4-16.8-7.2C228,162.8,228,147.6,236.8,138.8z
	 M224.8,240.4c0-6.4,2.4-12,7.2-16.8c9.6-9.6,24.8-9.6,33.6,0c4.8,4.8,7.2,10.4,7.2,16.8s-2.4,12.8-7.2,16.8
	c-4.8,4.8-11.2,7.2-16.8,7.2c-6.4,0-12-2.4-16.8-7.2C227.2,252.4,224.8,246.8,224.8,240.4z"/>
</svg>